# xmcd
#
# Track frame offsets:
#	150
#	19455
#	42062
#	60297
#	69000
#	83577
#	125517
#
# Disc length: 1815 seconds
# Revision: 0
# Processed by: cddbd v1.5.2PL0 Copyright (c) Steve Scherf et al.
# Submitted via: dBpowerAMP V12.0
#
DISCID=4b071507
DTITLE=James Brown - Live! - Disc 2
DYEAR=1900
DGENRE=Blues
TTITLE0=Give It Up or Turn It Loose
TTITLE1=It's Too Funky in Here
TTITLE2=Doing It to Death
TTITLE3=Try Me
TTITLE4=Get on the Good Foot
TTITLE5=Prisoner of Love
TTITLE6=Get Up Off That Thing
EXTD=
EXTT0=
EXTT1=
EXTT2=
EXTT3=
EXTT4=
EXTT5=
EXTT6=
PLAYORDER=
